<?xml version="1.0" standalone="no"?>
<!DOCTYPE svg PUBLIC "-//W3C//DTD SVG 20010904//EN"
 "http://www.w3.org/TR/2001/REC-SVG-20010904/DTD/svg10.dtd">
<svg version="1.0" xmlns="http://www.w3.org/2000/svg"
 width="300.000000pt" height="300.000000pt" viewBox="0 0 300.000000 300.000000"
 preserveAspectRatio="xMidYMid meet">
<metadata>
Created by potrace 1.10, written by Peter Selinger 2001-2011
</metadata>
<g transform="translate(0.000000,300.000000) scale(0.100000,-0.100000)"
fill="#000000" stroke="none">
<path d="M1145 2371 c-132 -38 -205 -86 -205 -136 0 -22 -4 -25 -34 -25 -69 0
-125 -80 -111 -158 8 -45 44 -108 79 -141 22 -21 24 -27 13 -40 -23 -26 -26
-46 -11 -79 15 -37 63 -62 118 -62 21 0 36 -6 40 -15 4 -12 0 -14 -20 -9 -34
9 -97 -35 -134 -93 -17 -26 -36 -79 -46 -122 -17 -79 -58 -141 -94 -141 -40 0
-78 -69 -141 -250 -43 -123 -44 -127 -44 -260 0 -126 2 -139 26 -185 29 -58
92 -109 152 -126 34 -9 53 -9 102 4 33 8 61 14 61 14 1 -1 -7 -42 -17 -92 -23
-114 -46 -266 -55 -372 -6 -78 -5 -83 13 -83 18 0 21 9 27 87 3 48 20 170 37
271 29 177 29 185 12 204 -18 20 -29 20 -126 2 -59 -10 -145 49 -179 124 -24
54 -26 200 -3 299 16 71 82 250 94 258 4 2 25 -7 46 -22 40 -27 117 -57 178
-68 20 -4 39 -11 42 -14 6 -10 12 -53 20 -136 3 -38 8 -88 10 -110 12 -122 15
-160 21 -260 7 -127 21 -160 70 -169 17 -4 104 -4 192 0 110 4 162 3 166 -5 4
-6 7 -93 7 -193 -1 -209 5 -268 25 -268 12 0 14 43 14 245 0 157 4 245 10 245
6 0 10 -31 10 -72 0 -40 3 -151 7 -245 5 -135 9 -173 20 -173 10 0 13 44 13
229 0 129 4 232 9 235 5 4 99 6 208 6 165 1 204 4 222 16 12 9 25 13 28 10 7
-6 58 -251 66 -316 4 -25 9 -75 13 -112 6 -59 10 -68 27 -68 18 0 19 5 13 67
-11 117 -47 308 -81 441 -18 70 -32 128 -30 130 2 2 18 -5 37 -14 49 -27 160
-25 213 3 120 64 167 203 130 384 -23 116 -79 259 -112 286 -24 19 -27 30 -33
117 -7 81 -12 103 -34 135 -15 21 -38 44 -51 51 -15 8 -23 20 -21 29 10 37 28
193 22 198 -17 17 -517 -3 -591 -23 -11 -3 -27 -8 -37 -10 -12 -4 -18 5 -23
37 -11 66 -50 172 -94 256 -37 71 -39 78 -25 95 9 9 18 36 21 60 4 34 0 51
-19 78 -47 70 -138 87 -263 51z m189 -36 c45 -22 63 -69 46 -120 -10 -29 -23
-41 -71 -66 -67 -33 -195 -63 -243 -56 -42 6 -84 -10 -92 -36 -4 -12 -15 -40
-24 -62 -10 -22 -21 -49 -25 -60 -6 -19 -8 -18 -32 10 -83 100 -76 203 17 230
29 9 70 43 70 60 0 28 115 91 195 107 56 11 127 8 159 -7z m89 -292 c60 -127
77 -190 77 -281 0 -79 -15 -125 -53 -160 -19 -18 -37 -21 -144 -23 -116 -3
-124 -2 -147 20 -14 13 -24 33 -23 45 1 15 -4 22 -20 24 -15 2 -33 20 -49 48
-25 42 -28 44 -74 44 -55 0 -100 29 -100 64 0 44 47 61 82 29 28 -25 31 -11 9
47 -20 52 -20 53 -1 77 10 13 21 36 25 51 5 27 7 27 83 28 80 2 217 38 257 68
11 9 23 16 26 16 3 0 26 -44 52 -97z m723 -260 c-2 -10 -8 -48 -12 -85 l-6
-67 -57 5 c-46 5 -60 3 -74 -11 -10 -9 -14 -21 -11 -26 3 -6 -1 -18 -10 -28
-12 -13 -14 -27 -8 -62 7 -39 10 -44 37 -47 18 -2 38 -14 49 -29 18 -25 19
-33 7 -142 -48 -453 -71 -691 -71 -733 l0 -48 -277 0 c-153 0 -362 -3 -464 -7
l-186 -6 -7 109 c-12 181 -35 436 -61 673 -14 124 -25 226 -25 228 0 2 -5 3
-12 3 -8 0 -9 -29 -5 -107 4 -60 10 -118 13 -131 6 -21 4 -22 -22 -17 -16 4
-51 14 -77 22 -42 13 -48 18 -44 37 3 11 15 66 27 121 25 120 50 174 96 215
53 46 73 41 28 -7 -32 -34 -58 -83 -45 -83 6 0 24 20 41 45 34 49 72 79 91 73
8 -3 -3 -19 -25 -39 -38 -34 -74 -89 -58 -89 4 0 24 20 45 44 35 42 72 65 84
52 8 -7 -87 -101 -112 -111 -34 -13 0 -16 46 -5 24 6 137 14 250 17 l207 6 20
71 c11 39 24 88 27 109 5 27 13 39 29 42 53 14 197 22 379 24 185 1 198 0 193
-16z m-43 -174 c96 -26 134 -100 139 -274 l3 -99 -45 -18 c-50 -19 -106 -23
-115 -9 -3 5 0 53 6 106 10 87 10 98 -6 115 -10 11 -14 20 -8 20 5 0 18 -9 28
-20 21 -23 37 -26 29 -6 -9 24 -53 48 -101 54 -57 9 -51 27 9 27 38 -1 53 -6
78 -30 30 -29 45 -30 35 -3 -10 25 -80 58 -123 58 -47 0 -62 14 -33 30 34 18
100 1 143 -38 43 -39 65 -36 27 4 -31 34 -67 52 -118 60 -23 4 -41 10 -41 14
0 22 34 26 93 9z m-975 -21 c20 -20 14 -28 -23 -28 -19 0 -35 4 -35 8 0 12 22
32 35 32 6 0 16 -5 23 -12z m-367 -285 c21 -24 108 -62 162 -69 38 -5 47 -10
47 -27 0 -18 -4 -19 -47 -13 -47 6 -149 49 -187 78 -12 9 -17 21 -13 32 8 20
21 20 38 -1z m1537 -72 c-5 -39 -93 -81 -170 -81 -45 0 -58 3 -58 15 0 11 13
15 53 15 83 1 168 48 153 86 -6 14 -4 15 9 4 9 -8 15 -25 13 -39z m29 -84 c6
-12 21 -63 33 -112 28 -111 24 -208 -10 -275 -28 -57 -49 -76 -107 -102 -51
-22 -119 -21 -171 4 -23 12 -27 19 -27 58 1 69 27 342 36 366 6 17 19 22 64
27 31 3 78 17 103 30 61 31 67 32 79 4z"/>
<path d="M1284 2056 c-22 -19 -26 -27 -17 -36 9 -10 17 -9 34 4 13 9 31 16 41
16 10 0 18 7 18 15 0 8 -4 15 -9 15 -5 0 -16 3 -24 6 -8 3 -27 -6 -43 -20z"/>
<path d="M1098 1989 c-22 -12 -24 -49 -4 -49 8 0 17 4 21 9 3 5 19 12 36 16
16 4 28 12 26 18 -5 16 -57 20 -79 6z"/>
<path d="M1230 1939 c0 -7 16 -41 35 -76 37 -67 44 -96 22 -91 -7 2 -14 -1
-15 -7 -1 -5 10 -10 26 -10 41 0 39 37 -6 119 -36 66 -62 93 -62 65z"/>
<path d="M1336 1924 c-7 -18 18 -64 35 -64 16 0 22 30 11 56 -13 28 -37 32
-46 8z"/>
<path d="M1156 1864 c-7 -18 18 -64 35 -64 16 0 22 30 11 56 -13 28 -37 32
-46 8z"/>
<path d="M1368 1848 c-30 -11 -38 -28 -12 -28 21 0 54 18 54 30 0 12 -6 12
-42 -2z"/>
<path d="M1196 1785 c-11 -8 -17 -18 -13 -22 9 -8 57 14 57 27 0 14 -22 12
-44 -5z"/>
<path d="M1358 1728 c-28 -31 -52 -34 -100 -13 -13 5 -18 3 -18 -8 0 -36 100
-38 135 -2 24 23 34 55 18 55 -5 -1 -20 -15 -35 -32z"/>
<path d="M1207 1400 c-19 -22 -37 -40 -41 -40 -4 0 -12 14 -17 30 -18 50 -32
36 -25 -22 10 -72 18 -79 85 -76 l56 3 3 49 c4 56 -4 96 -17 96 -5 0 -25 -18
-44 -40z m43 -55 c0 -32 -2 -35 -30 -35 -36 0 -37 3 -7 40 29 38 37 37 37 -5z"/>
<path d="M1350 1382 c-43 -4 -59 -17 -42 -34 9 -9 85 -12 305 -9 294 3 331 7
306 38 -10 11 -60 13 -273 11 -144 -1 -277 -4 -296 -6z"/>
<path d="M1224 1145 c-31 -41 -49 -44 -58 -10 -4 14 -13 25 -21 25 -10 0 -12
-9 -8 -37 11 -73 23 -88 76 -91 67 -4 78 7 71 76 -8 85 -18 92 -60 37z m36
-55 c0 -38 -2 -40 -30 -40 -16 0 -30 2 -30 6 0 5 53 74 58 74 1 0 2 -18 2 -40z"/>
<path d="M1333 1120 c-13 -5 -23 -13 -23 -18 0 -29 32 -31 309 -25 233 5 284
9 288 21 3 8 0 18 -8 23 -18 11 -537 10 -566 -1z"/>
<path d="M1239 880 c-18 -22 -36 -40 -40 -40 -4 0 -12 14 -18 30 -16 48 -35
38 -27 -15 10 -78 19 -86 84 -83 l57 3 3 49 c4 56 -4 96 -18 96 -5 0 -24 -18
-41 -40z m41 -55 c0 -32 -2 -35 -30 -35 -36 0 -37 3 -7 40 29 38 37 37 37 -5z"/>
<path d="M1334 845 c-13 -32 7 -35 234 -35 277 0 332 5 332 31 0 18 -14 19
-280 19 -236 0 -282 -2 -286 -15z"/>
<path d="M2043 2069 c4 -13 7 -32 7 -41 0 -10 5 -18 11 -18 15 0 6 73 -10 78
-10 4 -12 -1 -8 -19z"/>
<path d="M2220 2035 c-18 -19 -30 -38 -27 -42 8 -7 77 55 77 69 0 16 -17 7
-50 -27z"/>
</g>
</svg>
